<svg xmlns="http://www.w3.org/2000/svg" width="1200" height="800" viewBox="0 0 1200 800">
  <defs>
    <linearGradient id="bg" x1="0" y1="1" x2="1" y2="0">
      <stop offset="0" stop-color="#0b0b0d"/>
      <stop offset="1" stop-color="#131318"/>
    </linearGradient>
    <linearGradient id="accent" x1="0" y1="0" x2="0" y2="1">
      <stop offset="0" stop-color="#c59d5f"/>
      <stop offset="1" stop-color="#7b5a2b"/>
    </linearGradient>
  </defs>
  <rect width="1200" height="800" fill="url(#bg)"/>
  <rect x="96" y="96" width="1008" height="608" rx="28" fill="rgba(255,255,255,0.04)" stroke="rgba(255,255,255,0.10)"/>
  <text x="160" y="220" fill="rgba(255,255,255,0.92)" font-family="ui-sans-serif, system-ui, -apple-system, Segoe UI, Roboto, Helvetica, Arial" font-size="54" font-weight="700">
    Barber Chairs (Placeholder)
  </text>
  <text x="160" y="290" fill="rgba(255,255,255,0.70)" font-family="ui-sans-serif, system-ui, -apple-system, Segoe UI, Roboto, Helvetica, Arial" font-size="26">
    Swap this with your station photos
  </text>

  <g transform="translate(170,360)">
    <g transform="translate(0,0)">
      <rect x="0" y="0" width="240" height="220" rx="26" fill="rgba(255,255,255,0.06)"/>
      <rect x="34" y="34" width="172" height="110" rx="18" fill="rgba(197,157,95,0.20)"/>
      <rect x="84" y="154" width="72" height="96" rx="18" fill="rgba(255,255,255,0.08)"/>
      <rect x="52" y="248" width="136" height="18" rx="9" fill="url(#accent)" opacity="0.85"/>
    </g>
    <g transform="translate(320,0)">
      <rect x="0" y="0" width="240" height="220" rx="26" fill="rgba(255,255,255,0.06)"/>
      <rect x="34" y="34" width="172" height="110" rx="18" fill="rgba(197,157,95,0.20)"/>
      <rect x="84" y="154" width="72" height="96" rx="18" fill="rgba(255,255,255,0.08)"/>
      <rect x="52" y="248" width="136" height="18" rx="9" fill="url(#accent)" opacity="0.85"/>
    </g>
    <g transform="translate(640,0)">
      <rect x="0" y="0" width="240" height="220" rx="26" fill="rgba(255,255,255,0.06)"/>
      <rect x="34" y="34" width="172" height="110" rx="18" fill="rgba(197,157,95,0.20)"/>
      <rect x="84" y="154" width="72" height="96" rx="18" fill="rgba(255,255,255,0.08)"/>
      <rect x="52" y="248" width="136" height="18" rx="9" fill="url(#accent)" opacity="0.85"/>
    </g>
  </g>
</svg>

