<svg xmlns="http://www.w3.org/2000/svg" width="1200" height="800" viewBox="0 0 1200 800">
  <defs>
    <linearGradient id="bg" x1="0" y1="0" x2="1" y2="1">
      <stop offset="0" stop-color="#0b0b0d"/>
      <stop offset="1" stop-color="#1a1410"/>
    </linearGradient>
    <linearGradient id="accent" x1="0" y1="0" x2="1" y2="0">
      <stop offset="0" stop-color="#c59d5f"/>
      <stop offset="1" stop-color="#e6c88f"/>
    </linearGradient>
  </defs>
  <rect width="1200" height="800" fill="url(#bg)"/>
  <rect x="96" y="96" width="1008" height="608" rx="28" fill="rgba(255,255,255,0.04)" stroke="rgba(255,255,255,0.10)"/>
  <text x="160" y="220" fill="rgba(255,255,255,0.92)" font-family="ui-sans-serif, system-ui, -apple-system, Segoe UI, Roboto, Helvetica, Arial" font-size="54" font-weight="700">
    Fresh Cut (Placeholder)
  </text>
  <text x="160" y="290" fill="rgba(255,255,255,0.70)" font-family="ui-sans-serif, system-ui, -apple-system, Segoe UI, Roboto, Helvetica, Arial" font-size="26">
    Use a close-up of a finished haircut
  </text>

  <g transform="translate(240,360)">
    <circle cx="260" cy="180" r="170" fill="rgba(255,255,255,0.06)" stroke="rgba(255,255,255,0.10)"/>
    <path d="M120 190 C160 95, 360 95, 400 190" fill="none" stroke="url(#accent)" stroke-width="16" stroke-linecap="round" opacity="0.9"/>
    <path d="M160 245 C210 210, 310 210, 360 245" fill="none" stroke="rgba(255,255,255,0.18)" stroke-width="10" stroke-linecap="round"/>
    <rect x="470" y="70" width="380" height="220" rx="28" fill="rgba(255,255,255,0.05)"/>
    <rect x="510" y="112" width="260" height="16" rx="8" fill="rgba(255,255,255,0.20)"/>
    <rect x="510" y="150" width="320" height="14" rx="7" fill="rgba(255,255,255,0.12)"/>
    <rect x="510" y="182" width="280" height="14" rx="7" fill="rgba(255,255,255,0.10)"/>
    <rect x="510" y="214" width="200" height="14" rx="7" fill="rgba(255,255,255,0.10)"/>
  </g>
</svg>

