<svg xmlns="http://www.w3.org/2000/svg" width="1200" height="800" viewBox="0 0 1200 800">
  <defs>
    <linearGradient id="bg" x1="0" y1="1" x2="1" y2="0">
      <stop offset="0" stop-color="#0b0b0d"/>
      <stop offset="1" stop-color="#1a1410"/>
    </linearGradient>
    <linearGradient id="accent" x1="0" y1="0" x2="1" y2="0">
      <stop offset="0" stop-color="#c59d5f"/>
      <stop offset="1" stop-color="#e6c88f"/>
    </linearGradient>
  </defs>
  <rect width="1200" height="800" fill="url(#bg)"/>
  <rect x="96" y="96" width="1008" height="608" rx="28" fill="rgba(255,255,255,0.04)" stroke="rgba(255,255,255,0.10)"/>
  <text x="160" y="220" fill="rgba(255,255,255,0.92)" font-family="ui-sans-serif, system-ui, -apple-system, Segoe UI, Roboto, Helvetica, Arial" font-size="54" font-weight="700">
    Our Team (Placeholder)
  </text>
  <text x="160" y="290" fill="rgba(255,255,255,0.70)" font-family="ui-sans-serif, system-ui, -apple-system, Segoe UI, Roboto, Helvetica, Arial" font-size="26">
    Add a photo of your barbers / team
  </text>

  <g transform="translate(180,360)">
    <g transform="translate(0,0)">
      <circle cx="120" cy="120" r="96" fill="rgba(255,255,255,0.06)" stroke="rgba(255,255,255,0.12)"/>
      <rect x="40" y="228" width="160" height="22" rx="11" fill="url(#accent)" opacity="0.85"/>
      <rect x="58" y="262" width="124" height="14" rx="7" fill="rgba(255,255,255,0.12)"/>
    </g>
    <g transform="translate(260,0)">
      <circle cx="120" cy="120" r="96" fill="rgba(255,255,255,0.06)" stroke="rgba(255,255,255,0.12)"/>
      <rect x="40" y="228" width="160" height="22" rx="11" fill="url(#accent)" opacity="0.85"/>
      <rect x="58" y="262" width="124" height="14" rx="7" fill="rgba(255,255,255,0.12)"/>
    </g>
    <g transform="translate(520,0)">
      <circle cx="120" cy="120" r="96" fill="rgba(255,255,255,0.06)" stroke="rgba(255,255,255,0.12)"/>
      <rect x="40" y="228" width="160" height="22" rx="11" fill="url(#accent)" opacity="0.85"/>
      <rect x="58" y="262" width="124" height="14" rx="7" fill="rgba(255,255,255,0.12)"/>
    </g>
  </g>
</svg>

