<svg xmlns="http://www.w3.org/2000/svg" width="1200" height="800" viewBox="0 0 1200 800">
  <defs>
    <linearGradient id="bg" x1="0" y1="0" x2="1" y2="1">
      <stop offset="0" stop-color="#0b0b0d"/>
      <stop offset="1" stop-color="#111018"/>
    </linearGradient>
    <linearGradient id="metal" x1="0" y1="0" x2="1" y2="0">
      <stop offset="0" stop-color="#d7d7d7"/>
      <stop offset="0.5" stop-color="#ffffff"/>
      <stop offset="1" stop-color="#c7c7c7"/>
    </linearGradient>
    <linearGradient id="accent" x1="0" y1="0" x2="1" y2="0">
      <stop offset="0" stop-color="#c59d5f"/>
      <stop offset="1" stop-color="#e6c88f"/>
    </linearGradient>
  </defs>
  <rect width="1200" height="800" fill="url(#bg)"/>
  <rect x="96" y="96" width="1008" height="608" rx="28" fill="rgba(255,255,255,0.04)" stroke="rgba(255,255,255,0.10)"/>
  <text x="160" y="220" fill="rgba(255,255,255,0.92)" font-family="ui-sans-serif, system-ui, -apple-system, Segoe UI, Roboto, Helvetica, Arial" font-size="54" font-weight="700">
    Barber Tools (Placeholder)
  </text>
  <text x="160" y="290" fill="rgba(255,255,255,0.70)" font-family="ui-sans-serif, system-ui, -apple-system, Segoe UI, Roboto, Helvetica, Arial" font-size="26">
    Replace with clippers / tools photos
  </text>

  <g transform="translate(200,360)">
    <rect x="0" y="0" width="320" height="360" rx="34" fill="rgba(255,255,255,0.06)"/>
    <rect x="52" y="60" width="216" height="220" rx="26" fill="rgba(255,255,255,0.06)" stroke="rgba(255,255,255,0.12)"/>
    <rect x="94" y="94" width="132" height="34" rx="17" fill="url(#accent)" opacity="0.9"/>
    <rect x="110" y="150" width="100" height="92" rx="20" fill="url(#metal)" opacity="0.9"/>
    <rect x="90" y="298" width="140" height="18" rx="9" fill="rgba(197,157,95,0.25)"/>
  </g>

  <g transform="translate(610,410)">
    <rect x="0" y="0" width="430" height="260" rx="34" fill="rgba(255,255,255,0.06)"/>
    <path d="M90 150 C170 70, 260 70, 340 150" fill="none" stroke="url(#metal)" stroke-width="20" stroke-linecap="round"/>
    <path d="M140 176 C195 120, 235 120, 290 176" fill="none" stroke="url(#accent)" stroke-width="10" stroke-linecap="round" opacity="0.7"/>
    <circle cx="90" cy="150" r="18" fill="rgba(255,255,255,0.25)"/>
    <circle cx="340" cy="150" r="18" fill="rgba(255,255,255,0.25)"/>
  </g>
</svg>

